<?xml version="1.0" encoding="utf-8"?>
<!-- Generator: Adobe Illustrator 21.1.0, SVG Export Plug-In . SVG Version: 6.00 Build 0)  -->
<svg version="1.1" id="Layer_1" xmlns="http://www.w3.org/2000/svg" xmlns:xlink="http://www.w3.org/1999/xlink" x="0px" y="0px"
	 viewBox="0 0 184.2 163.4" style="enable-background:new 0 0 184.2 163.4;" xml:space="preserve">
<style type="text/css">
	.st0{fill:#FFFFFF;}
	.st1{fill:#010101;}
	.st2{fill:#E42E26;}
	.st3{fill:none;stroke:#010101;stroke-miterlimit:10;}
	.st4{fill:#EE3724;}
	.st5{fill:#070807;}
	.st6{fill:none;stroke:#000000;stroke-miterlimit:10;}
	.st7{fill:none;}
	.st8{fill:#EE3424;}
</style>
<path class="st2" d="M92.1,0C41.3,0,0,36.5,0,81.6c0,16.2,5.2,31.5,14.6,44.2l1.8,28.8c-0.2,2.7,2.5,4.8,5,3.6l29.4-3.5
	c12.3,5.5,26.4,8.7,41,8.7c51.1,0,92.3-36.7,92.3-81.8C184.2,36.5,142.9,0,92.1,0z M123.8,118.9c-0.5,0-0.9,0-1.3,0
	c-8.9,0-15.4-4-19.8-8l-5.8,5.1l-0.4-0.1l-1-19.5l8.3,1.6l0.1-0.1c0,0,0,0.1,0.1,0.1l10.7,2.1l0,0.4l-5,4.4c3.2,2.7,7.8,5.2,13.9,5
	c15.5-0.7,27.2-12.5,27.2-27.5c0-7.7-3.1-15.1-8.6-20.4c-5-4.9-11.5-7.4-18.2-7.1c-14.9,0.6-21,14.6-27.5,29.5
	c-7,16.1-14.9,34.4-35.9,33.7c-20.1-0.7-35.9-16.8-35.9-36.6c0-21.8,14.5-36.5,36-36.6c0,0,0,0,0.1,0c8.7,0,15.6,4.5,20.3,9l5.6-5
	l0.4,0.1l1.4,19.4L69,65l0-0.4l5.1-4.6c-3.4-3.1-8.1-6-13.6-6c-19.9,0-27,14.3-27,27.5c0,14.9,11.9,27,27.2,27.5
	c14,0.5,19.6-10.3,27.3-28.2c6.9-16,14.8-34.2,35.4-35c9.2-0.3,18,3.1,24.8,9.7c7.2,7,11.4,16.8,11.4,26.9
	C159.6,102,143.9,118,123.8,118.9z"/>
</svg>
