<?xml version="1.0" encoding="utf-8"?>
<!-- Generator: Adobe Illustrator 21.1.0, SVG Export Plug-In . SVG Version: 6.00 Build 0)  -->
<svg version="1.1" id="Layer_1" xmlns="http://www.w3.org/2000/svg" xmlns:xlink="http://www.w3.org/1999/xlink" x="0px" y="0px"
	 viewBox="0 0 517.4 126.3" style="enable-background:new 0 0 517.4 126.3;" xml:space="preserve">
<style type="text/css">
	.st0{fill:#EE3724;}
	.st1{fill:#FFFFFF;}
</style>
<g>
	<g>
		<g>
			<path class="st0" d="M3.2,118.2l-3-4.3H3l1.6,2.4l1.6-2.4H9l-3,4.2l3.3,4.8H6.6l-1.9-2.8l-1.9,2.8H0L3.2,118.2z"/>
			<path class="st1" d="M21.1,117.6h-8.8v-1.9h8.8V117.6z M21.1,121.3h-8.8v-1.9h8.8V121.3z"/>
			<path class="st1" d="M27.9,112.5h-2.5v-2h2.5V112.5z M25.4,113.9h2.5v9h-2.5V113.9z"/>
			<path class="st1" d="M29.5,113.9h2.4v1.3H32c0.6-1,1.7-1.5,2.8-1.5c2.6,0,3.3,1.5,3.3,3.7v5.6h-2.5v-5.1c0-1.5-0.4-2.2-1.6-2.2
				c-1.3,0-1.9,0.8-1.9,2.6v4.7h-2.5L29.5,113.9L29.5,113.9z"/>
			<path class="st1" d="M46,121.8L46,121.8c-0.6,1-1.6,1.4-2.8,1.4c-2.7,0-4.1-2.3-4.1-4.8c0-2.4,1.3-4.7,4-4.7
				c1.1,0,2.1,0.5,2.7,1.3l0,0l0,0v-4.5h2.5V123H46V121.8z M43.8,115.5c-1.6,0-2.2,1.4-2.2,2.9c0,1.4,0.6,2.9,2.2,2.9
				c1.6,0,2.1-1.4,2.1-2.9C45.9,116.9,45.4,115.5,43.8,115.5z"/>
			<path class="st1" d="M51.9,119c0.1,1.6,0.8,2.3,2.2,2.3c1,0,1.8-0.6,2-1.2h2.2c-0.7,2.1-2.2,3-4.2,3c-2.8,0-4.6-2-4.6-4.8
				c0-2.7,1.9-4.8,4.6-4.8c3.1,0,4.6,2.6,4.4,5.4L51.9,119L51.9,119z M55.9,117.4c-0.2-1.3-0.8-1.9-2-1.9c-1.6,0-2,1.2-2.1,1.9H55.9
				z"/>
			<path class="st1" d="M59.5,113.9h2.4v1.2l0,0c0.6-1,1.6-1.4,2.7-1.4c2.8,0,4.1,2.3,4.1,4.9c0,2.4-1.3,4.7-4,4.7
				c-1.1,0-2.1-0.5-2.7-1.4l0,0v4.3h-2.5C59.5,126.2,59.5,113.9,59.5,113.9z M66.2,118.4c0-1.4-0.6-2.9-2.2-2.9
				c-1.6,0-2.1,1.5-2.1,2.9c0,1.5,0.6,2.9,2.2,2.9C65.7,121.3,66.2,119.9,66.2,118.4z"/>
			<path class="st1" d="M71.9,119c0.1,1.6,0.8,2.3,2.2,2.3c1,0,1.8-0.6,2-1.2h2.2c-0.7,2.1-2.2,3-4.2,3c-2.8,0-4.6-2-4.6-4.8
				c0-2.7,1.9-4.8,4.6-4.8c3.1,0,4.6,2.6,4.4,5.4L71.9,119L71.9,119z M75.9,117.4c-0.2-1.3-0.8-1.9-2-1.9c-1.6,0-2,1.2-2.1,1.9H75.9
				z"/>
			<path class="st1" d="M79.5,113.9h2.4v1.3H82c0.6-1,1.7-1.5,2.8-1.5c2.6,0,3.3,1.5,3.3,3.7v5.6h-2.5v-5.1c0-1.5-0.4-2.2-1.6-2.2
				c-1.3,0-1.9,0.8-1.9,2.6v4.7h-2.5v-9.1H79.5z"/>
			<path class="st1" d="M96,121.8L96,121.8c-0.6,1-1.6,1.4-2.8,1.4c-2.7,0-4.1-2.3-4.1-4.8c0-2.4,1.3-4.7,4-4.7
				c1.1,0,2.1,0.5,2.7,1.3l0,0l0,0v-4.5h2.5V123H96V121.8z M93.8,115.5c-1.6,0-2.2,1.4-2.2,2.9c0,1.4,0.6,2.9,2.2,2.9
				s2.1-1.4,2.1-2.9S95.4,115.5,93.8,115.5z"/>
			<path class="st1" d="M101.9,119c0.1,1.6,0.8,2.3,2.2,2.3c1,0,1.8-0.6,2-1.2h2.2c-0.7,2.1-2.2,3-4.2,3c-2.8,0-4.6-2-4.6-4.8
				c0-2.7,1.9-4.8,4.6-4.8c3.1,0,4.6,2.6,4.4,5.4L101.9,119L101.9,119z M105.9,117.4c-0.2-1.3-0.8-1.9-2-1.9c-1.6,0-2,1.2-2.1,1.9
				H105.9z"/>
			<path class="st1" d="M109.5,113.9h2.4v1.3h0.1c0.6-1,1.7-1.5,2.8-1.5c2.6,0,3.3,1.5,3.3,3.7v5.6h-2.5v-5.1c0-1.5-0.4-2.2-1.6-2.2
				c-1.3,0-1.9,0.8-1.9,2.6v4.7h-2.5v-9.1H109.5z"/>
			<path class="st1" d="M122.7,113.9h1.8v1.7h-1.8v4.5c0,0.8,0.2,1,1,1c0.3,0,0.5,0,0.8-0.1v1.9c-0.4,0.1-1,0.1-1.5,0.1
				c-1.5,0-2.8-0.3-2.8-2.1v-5.3h-1.5v-1.7h1.5v-2.7h2.5V113.9z"/>
			<path class="st1" d="M125.4,110.4h2.5v12.5h-2.5V110.4z"/>
			<path class="st1" d="M134,124.1c-0.5,1.5-1.4,2-3.1,2c-0.5,0-1,0-1.5-0.1v-2c0.5,0,1,0.1,1.5,0.1c0.9-0.1,1.1-1,0.9-1.7l-3.2-8.5
				h2.7l2,6.2l0,0l2-6.2h2.6L134,124.1z"/>
			<path class="st1" d="M147.1,113.6c2.8,0,4.7,1.9,4.7,4.8s-1.8,4.8-4.7,4.8c-2.8,0-4.7-1.9-4.7-4.8
				C142.4,115.5,144.3,113.6,147.1,113.6z M147.1,121.3c1.7,0,2.2-1.5,2.2-2.9c0-1.5-0.5-2.9-2.2-2.9s-2.2,1.5-2.2,2.9
				C144.9,119.8,145.4,121.3,147.1,121.3z"/>
			<path class="st1" d="M152.7,113.9h2.4v1.7l0,0c0.5-1.1,1.7-1.9,2.9-1.9c0.2,0,0.4,0,0.5,0.1v2.3c-0.2-0.1-0.6-0.1-0.9-0.1
				c-1.8,0-2.4,1.3-2.4,2.9v4.1h-2.5V113.9z"/>
			<path class="st1" d="M167.8,122.3c0,1.5-0.5,4-4.7,4c-1.8,0-3.9-0.8-4-2.9h2.5c0.2,0.9,1,1.2,1.9,1.2c1.4,0,2-0.9,2-2.2v-1.2l0,0
				c-0.5,0.9-1.6,1.4-2.7,1.4c-2.7,0-3.9-2.1-3.9-4.5c0-2.3,1.3-4.5,3.9-4.5c1.2,0,2.1,0.4,2.7,1.5l0,0v-1.2h2.4L167.8,122.3
				L167.8,122.3z M165.5,118.3c0-1.5-0.5-2.8-2.1-2.8c-1.4,0-2,1.2-2,2.6c0,1.3,0.5,2.7,2,2.7C164.8,120.8,165.5,119.6,165.5,118.3z
				"/>
			<path class="st1" d="M169,116.7c0.1-2.3,2.2-3,4.2-3c1.8,0,4,0.4,4,2.6v4.7c0,0.8,0.1,1.6,0.3,2H175c-0.1-0.3-0.2-0.6-0.2-0.9
				c-0.8,0.8-1.9,1.1-3,1.1c-1.7,0-3.1-0.9-3.1-2.7c0-2,1.5-2.5,3.1-2.7c1.5-0.2,2.9-0.2,2.9-1.2c0-1.1-0.7-1.2-1.6-1.2
				c-0.9,0-1.6,0.4-1.6,1.4H169V116.7z M174.7,118.5c-0.4,0.4-1.3,0.4-2.1,0.5c-0.8,0.2-1.5,0.4-1.5,1.3s0.7,1.2,1.5,1.2
				c1.9,0,2-1.5,2-2.1v-0.9H174.7z"/>
			<path class="st1" d="M178.8,113.9h2.4v1.3h0.1c0.6-1,1.7-1.5,2.8-1.5c2.6,0,3.3,1.5,3.3,3.7v5.6h-2.5v-5.1c0-1.5-0.4-2.2-1.6-2.2
				c-1.3,0-1.9,0.8-1.9,2.6v4.7h-2.5v-9.1H178.8z"/>
			<path class="st1" d="M191,112.5h-2.5v-2h2.5V112.5z M188.5,113.9h2.5v9h-2.5V113.9z"/>
			<path class="st1" d="M192.1,121.1l4.7-5.3h-4.3v-1.9h7.6v1.9l-4.7,5.3h5v1.9h-8.3V121.1z"/>
			<path class="st1" d="M203.4,119c0.1,1.6,0.8,2.3,2.2,2.3c1,0,1.8-0.6,2-1.2h2.2c-0.7,2.1-2.2,3-4.2,3c-2.8,0-4.6-2-4.6-4.8
				c0-2.7,1.9-4.8,4.6-4.8c3.1,0,4.6,2.6,4.4,5.4L203.4,119L203.4,119z M207.4,117.4c-0.2-1.3-0.8-1.9-2-1.9c-1.6,0-2,1.2-2.1,1.9
				H207.4z"/>
			<path class="st1" d="M217.5,121.8L217.5,121.8c-0.6,1-1.6,1.4-2.8,1.4c-2.7,0-4.1-2.3-4.1-4.8c0-2.4,1.3-4.7,4-4.7
				c1.1,0,2.1,0.5,2.7,1.3l0,0l0,0v-4.5h2.5V123h-2.4v-1.2H217.5z M215.3,115.5c-1.6,0-2.2,1.4-2.2,2.9c0,1.4,0.6,2.9,2.2,2.9
				c1.6,0,2.1-1.4,2.1-2.9C217.4,116.9,216.9,115.5,215.3,115.5z"/>
			<path class="st1" d="M228.9,112.8h-3.7v-2.3h10.2v2.3h-3.7V123H229v-10.2H228.9z"/>
			<path class="st1" d="M236.4,110.4h9.3v2.3h-6.6v2.7h6v2.1h-6v3.1h6.7v2.3h-9.5v-12.5H236.4z"/>
			<path class="st1" d="M247,110.4h5.4c3.2,0,5.7,2,5.7,6.2c0,3.6-1.9,6.3-5.7,6.3H247V110.4z M249.8,120.6h2.4c1.6,0,3.1-1,3.1-3.7
				c0-2.5-0.9-4.1-3.6-4.1h-2v7.8H249.8z"/>
			<path class="st1" d="M265.9,119c0.1,1.6,0.8,2.3,2.2,2.3c1,0,1.8-0.6,2-1.2h2.2c-0.7,2.1-2.2,3-4.2,3c-2.8,0-4.6-2-4.6-4.8
				c0-2.7,1.9-4.8,4.6-4.8c3.1,0,4.6,2.6,4.4,5.4L265.9,119L265.9,119z M270,117.4c-0.2-1.3-0.8-1.9-2-1.9c-1.6,0-2,1.2-2.1,1.9H270
				z"/>
			<path class="st1" d="M278.2,122.9h-2.8l-3.1-9h2.6l1.9,6.2l0,0l1.9-6.2h2.5L278.2,122.9z"/>
			<path class="st1" d="M283.6,119c0.1,1.6,0.8,2.3,2.2,2.3c1,0,1.8-0.6,2-1.2h2.2c-0.7,2.1-2.2,3-4.2,3c-2.8,0-4.6-2-4.6-4.8
				c0-2.7,1.9-4.8,4.6-4.8c3.1,0,4.6,2.6,4.4,5.4L283.6,119L283.6,119z M287.7,117.4c-0.2-1.3-0.8-1.9-2-1.9c-1.6,0-2,1.2-2.1,1.9
				H287.7z"/>
			<path class="st1" d="M291.3,113.9h2.4v1.3h0.1c0.6-1,1.7-1.5,2.8-1.5c2.6,0,3.3,1.5,3.3,3.7v5.6h-2.5v-5.1c0-1.5-0.4-2.2-1.6-2.2
				c-1.3,0-1.9,0.8-1.9,2.6v4.7h-2.5L291.3,113.9L291.3,113.9z"/>
			<path class="st1" d="M304.4,113.9h1.8v1.7h-1.8v4.5c0,0.8,0.2,1,1,1c0.3,0,0.5,0,0.8-0.1v1.9c-0.4,0.1-1,0.1-1.5,0.1
				c-1.5,0-2.8-0.3-2.8-2.1v-5.3h-1.5v-1.7h1.5v-2.7h2.5V113.9z"/>
		</g>
	</g>
	<g>
		<g>
			<path class="st0" d="M11.6,10.7H0V0.1h36.1v10.6H24.4v30.9H11.6V10.7z"/>
			<path class="st0" d="M38.1,0.1h35v10.6H50.8v5.2H73v9.9H50.8V31H73v10.6H38L38.1,0.1L38.1,0.1z"/>
			<path class="st0" d="M75.2,0.1h21c13.8,0,18.7,10.2,18.7,20.7c0,12.7-6.7,20.8-21.2,20.8H75.2V0.1z M88,31h5
				c8,0,9.1-6.5,9.1-10.4c0-2.6-0.8-9.9-10.1-9.9h-4V31z"/>
		</g>
		<g>
			<g>
				<path class="st0" d="M133.3,25.6l-3.9-6.5l-3.8,6.5h-9.4l8.9-13.1L116.6,0h9.4l3.5,6.2L133,0h9.4l-8.6,12.5l8.9,13.1H133.3z"/>
			</g>
		</g>
	</g>
	<g>
		<path class="st1" d="M33.4,66c-1.2-5.8-5.8-8.8-11.5-8.8c-9.8,0-14,8.1-14,16.7c0,9.4,4.2,17.2,14,17.2c7.1,0,11.4-5.1,11.9-11.9
			h5.5c-1.1,10.3-7.4,16.5-17.8,16.5c-12.7,0-19-9.5-19-21.4S9.3,52.7,22,52.7c8.6,0,15.7,4.6,16.9,13.4L33.4,66L33.4,66z"/>
		<path class="st1" d="M58.2,64.3c9.5,0,14.5,6.9,14.5,15.6s-5,15.6-14.5,15.6s-14.5-6.9-14.5-15.6C43.7,71.2,48.7,64.3,58.2,64.3z
			 M58.2,91.2c5.1,0,9.3-4,9.3-11.2s-4.2-11.3-9.3-11.3s-9.3,4.1-9.3,11.3S53,91.2,58.2,91.2z"/>
		<path class="st1" d="M91.8,94.8h-5.2L75.5,65H81l8.4,24.8h0.1L97.6,65h5.1L91.8,94.8z"/>
		<path class="st1" d="M132.7,85.3c-1.3,6.6-6,10.1-12.7,10.1c-9.5,0-14-6.6-14.3-15.7c0-9,5.9-15.5,14-15.5
			c10.6,0,13.8,9.9,13.5,17.1h-22.3c-0.2,5.2,2.8,9.8,9.3,9.8c4.1,0,6.9-1.9,7.7-5.8H132.7z M127.9,77c-0.3-4.7-3.7-8.4-8.6-8.4
			c-5.1,0-8.2,3.8-8.5,8.4H127.9z"/>
		<path class="st1" d="M138.2,65h4.6v4.7h0.1c2.1-3.7,5.4-5.4,9.7-5.4c7.8,0,10.3,4.5,10.3,10.9v19.6H158V74.6c0-3.7-2.3-6-6.1-6
			c-5.9,0-8.8,4-8.8,9.3v16.8h-4.9V65z"/>
		<path class="st1" d="M196.7,94.7c-0.9,0.5-2.1,0.8-3.5,0.8c-2.5,0-4.2-1.4-4.2-4.6c-2.7,3.2-6.3,4.6-10.5,4.6
			c-5.4,0-9.9-2.4-9.9-8.4c0-6.7,5-8.2,10.1-9.2c5.4-1.1,10-0.6,10-4.4c0-4.3-3.6-5-6.6-5c-4.1,0-7.2,1.3-7.4,5.7h-4.9
			c0.3-7.4,5.9-10,12.6-10c5.4,0,11.2,1.2,11.2,8.2v15.3c0,2.3,0,3.3,1.6,3.3c0.5,0,1-0.1,1.5-0.3L196.7,94.7L196.7,94.7z
			 M188.7,79.4c-3.8,2.8-14.9,0.1-14.9,7.4c0,3.2,2.8,4.4,5.8,4.4c6.5,0,9.1-4,9.1-6.7L188.7,79.4L188.7,79.4z"/>
		<path class="st1" d="M201.2,65h4.6v4.7h0.1c2.1-3.7,5.4-5.4,9.7-5.4c7.8,0,10.3,4.5,10.3,10.9v19.6H221V74.6c0-3.7-2.3-6-6.1-6
			c-5.9,0-8.8,4-8.8,9.3v16.8h-4.9V65z"/>
		<path class="st1" d="M240.1,65h5.9v4.3h-5.9v18.5c0,2.3,0.6,2.7,3.7,2.7h2.2v4.3h-3.7c-5.1,0-7.1-1-7.1-6.5v-19h-5.1V65h5.1v-8.9
			h4.9L240.1,65L240.1,65z"/>
		<path class="st1" d="M301.2,79.9c0,10.4-5.9,15.9-16.2,15.9c-10.6,0-16.9-4.9-16.9-15.9V53.6h5.5v26.3c0,7.3,4.1,11.2,11.4,11.2
			c7,0,10.7-3.9,10.7-11.2V53.6h5.5V79.9z"/>
		<path class="st1" d="M309.1,65h4.6v4.7h0.1c2.1-3.7,5.4-5.4,9.7-5.4c7.8,0,10.3,4.5,10.3,10.9v19.6h-4.9V74.6c0-3.7-2.3-6-6.1-6
			c-5.9,0-8.8,4-8.8,9.3v16.8h-4.9L309.1,65L309.1,65z"/>
		<path class="st1" d="M346.4,59.6h-4.9v-6h4.9V59.6z M341.5,65h4.9v29.8h-4.9V65z"/>
		<path class="st1" d="M367.4,94.8h-5.2L351.1,65h5.5l8.4,24.8h0.1l8.1-24.8h5.1L367.4,94.8z"/>
		<path class="st1" d="M408.2,85.3c-1.3,6.6-6,10.1-12.7,10.1c-9.5,0-14-6.6-14.3-15.7c0-9,5.9-15.5,14-15.5
			c10.6,0,13.8,9.9,13.5,17.1h-22.3c-0.2,5.2,2.8,9.8,9.3,9.8c4.1,0,6.9-1.9,7.7-5.8H408.2z M403.5,77c-0.3-4.7-3.7-8.4-8.6-8.4
			c-5.1,0-8.2,3.8-8.5,8.4H403.5z"/>
		<path class="st1" d="M413.6,65h4.6v6.3h0.1c2.4-4.8,5.6-7.2,11-7v5.2c-7.9,0-10.8,4.4-10.8,12v13.3h-4.9L413.6,65L413.6,65z"/>
		<path class="st1" d="M436,85.4c0.2,4.4,4,5.8,8,5.8c3.1,0,7.2-0.7,7.2-4.4c0-7.7-19.5-2.5-19.5-14c0-6,5.9-8.5,11.1-8.5
			c6.7,0,11.8,2.1,12.2,9.3h-4.9c-0.3-3.8-3.7-5-6.9-5c-2.9,0-6.3,0.8-6.3,3.8c0,3.5,5.2,4.2,9.7,5.2c4.9,1.1,9.7,2.8,9.7,8.5
			c0,7.1-6.6,9.4-12.7,9.4c-6.7,0-12.3-2.7-12.6-10.1C431,85.4,436,85.4,436,85.4z"/>
		<path class="st1" d="M467,59.6h-4.9v-6h4.9V59.6z M462.1,65h4.9v29.8h-4.9V65z"/>
		<path class="st1" d="M481.4,65h5.9v4.3h-5.9v18.5c0,2.3,0.6,2.7,3.7,2.7h2.2v4.3h-3.7c-5.1,0-7.1-1-7.1-6.5v-19h-5.1V65h5.1v-8.9
			h4.9V65z"/>
		<path class="st1" d="M504.5,98.8c-2.3,5.8-4.3,8-8.6,8c-1.2,0-2.3-0.1-3.4-0.5v-4.5c0.9,0.3,1.9,0.7,2.9,0.7c2,0,3.1-0.9,4-2.7
			l2-5.1L489.5,65h5.5l8.7,24.4h0.1l8.4-24.4h5.2L504.5,98.8z"/>
	</g>
</g>
</svg>
