<?xml version="1.0" encoding="utf-8"?>
<!-- Generator: Adobe Illustrator 21.1.0, SVG Export Plug-In . SVG Version: 6.00 Build 0)  -->
<svg version="1.1" id="Layer_1" xmlns="http://www.w3.org/2000/svg" xmlns:xlink="http://www.w3.org/1999/xlink" x="0px" y="0px"
	 viewBox="0 0 1920 637.4" style="enable-background:new 0 0 1920 637.4;" xml:space="preserve">
<style type="text/css">
	.st0{fill:#95989A;}
	.st1{font-family:'SegoeUI';}
	.st2{font-size:20px;}
	.st3{font-family:'HelveticaNeueLTPro-Bd';}
	.st4{font-size:119px;}
	.st5{letter-spacing:-4;}
	.st6{fill:#EE3724;}
	.st7{opacity:0.87;}
	.st8{fill:#EE3424;}
	.st9{font-family:'HelveticaNeueLTPro-Lt';}
	.st10{font-size:41.76px;}
	.st11{font-family:'HelveticaNeueLTPro-Blk';}
	.st12{fill:#FFFFFF;}
	.st13{font-family:'OpenSans';}
	.st14{font-size:14px;}
</style>
<text transform="matrix(1 0 0 1 772 309.7)" class="st0 st1 st2">t</text>
<text transform="matrix(1 0 0 1 230 198.7)" class="st3 st4 st5">IDEAS</text>
<text transform="matrix(1 0 0 1 230 308.7)" class="st3 st4 st5">WORTH</text>
<text transform="matrix(1 0 0 1 230 418.7)" class="st6 st3 st4 st5">SPREAD</text>
<text transform="matrix(1 0 0 1 230 528.7)" class="st6 st3 st4 st5">ING</text>
<g id="Group_9" transform="translate(583.406 283.3)" class="st7">
	<path id="Path_36-2" class="st6" d="M425.8,354.1l-97.1-161.8L234,354.1H0L221.6,27.9L10-283.3h234l87.1,154.4l87.1-154.4h234
		L438.2,27.9l221.6,326.2H425.8z"/>
</g>
<g id="Theme-06" transform="translate(1182 468)">
	<g id="Group_10">
		<text transform="matrix(1 0 0 1 0 -108.199)" class="st8 st9 st10">Keep the Conversation Going</text>
	</g>
	<g id="Group_18">
		<g id="Group_12">
			<g id="Group_11">
				<path id="Path_55" class="st6" d="M4.1-165.1l-3-4.3H4l1.6,2.4l1.6-2.4h2.7l-3,4.2l3.3,4.8H7.4l-1.9-2.8l-1.9,2.8H0.9L4.1-165.1
					z"/>
				<path id="Path_56" d="M22-165.7h-8.8v-1.9H22V-165.7z M22-162h-8.8v-1.9H22V-162z"/>
				<path id="Path_57" d="M28.8-170.8h-2.5v-2h2.5V-170.8z M26.3-169.4h2.5v9h-2.5V-169.4z"/>
				<path id="Path_58" d="M30.4-169.4h2.4v1.3h0.1c0.6-1,1.7-1.5,2.8-1.5c2.6,0,3.3,1.5,3.3,3.7v5.6h-2.5v-5.1
					c0-1.5-0.4-2.2-1.6-2.2c-1.3,0-1.9,0.8-1.9,2.6v4.7h-2.5v-9.1H30.4z"/>
				<path id="Path_59" d="M46.8-161.5L46.8-161.5c-0.6,1-1.7,1.5-2.8,1.4c-2.7,0-4.1-2.3-4.1-4.8c0-2.4,1.3-4.7,4-4.7
					c1.1,0,2.1,0.5,2.7,1.3l0,0v-4.5h2.5v12.5h-2.4L46.8-161.5L46.8-161.5z M44.7-167.8c-1.6,0-2.2,1.4-2.2,2.9
					c0,1.4,0.6,2.9,2.2,2.9s2.1-1.4,2.1-2.9S46.3-167.8,44.7-167.8z"/>
				<path id="Path_60" d="M52.8-164.3c0.1,1.6,0.8,2.3,2.2,2.3c0.8,0,1.6-0.4,2-1.2h2.2c-0.5,1.9-2.3,3.1-4.2,3
					c-2.5,0.1-4.5-1.8-4.6-4.3c0-0.2,0-0.3,0-0.5c-0.1-2.5,1.8-4.7,4.3-4.8c0.1,0,0.2,0,0.3,0c3.1,0,4.6,2.6,4.4,5.4h-6.6V-164.3z
					 M56.8-165.9c-0.2-1.3-0.8-1.9-2-1.9c-1.1-0.1-2,0.8-2.1,1.9c0,0,0,0,0,0H56.8z"/>
				<path id="Path_61" d="M60.4-169.4h2.4v1.2l0,0c0.6-0.9,1.6-1.5,2.7-1.4c2.8,0,4.1,2.3,4.1,4.9c0,2.4-1.3,4.7-4,4.7
					c-1.1,0-2.1-0.5-2.7-1.4l0,0v4.3h-2.5V-169.4z M67.1-164.9c0-1.4-0.6-2.9-2.2-2.9s-2.1,1.5-2.1,2.9c0,1.5,0.6,2.9,2.2,2.9
					S67.1-163.4,67.1-164.9z"/>
				<path id="Path_62" d="M72.8-164.3c0.1,1.6,0.8,2.3,2.2,2.3c0.8,0,1.6-0.4,2-1.2h2.2c-0.5,1.9-2.3,3.1-4.2,3
					c-2.5,0.1-4.5-1.8-4.6-4.3c0-0.2,0-0.3,0-0.5c-0.1-2.5,1.8-4.7,4.3-4.8c0.1,0,0.2,0,0.3,0c3.1,0,4.6,2.6,4.4,5.4h-6.6V-164.3z
					 M76.8-165.9c-0.2-1.3-0.8-1.9-2-1.9c-1.1-0.1-2,0.8-2.1,1.9c0,0,0,0,0,0H76.8z"/>
				<path id="Path_63" d="M80.4-169.4h2.4v1.3h0.1c0.6-1,1.7-1.5,2.8-1.5c2.6,0,3.3,1.5,3.3,3.7v5.6h-2.5v-5.1
					c0-1.5-0.4-2.2-1.6-2.2c-1.3,0-1.9,0.8-1.9,2.6v4.7h-2.5L80.4-169.4L80.4-169.4z"/>
				<path id="Path_64" d="M96.9-161.5L96.9-161.5c-0.6,1-1.7,1.5-2.8,1.4c-2.7,0-4.1-2.3-4.1-4.8c0-2.4,1.3-4.7,4-4.7
					c1.1,0,2.1,0.5,2.7,1.3l0,0v-4.5h2.5v12.5h-2.4L96.9-161.5L96.9-161.5z M94.7-167.8c-1.6,0-2.2,1.4-2.2,2.9
					c0,1.4,0.6,2.9,2.2,2.9s2.1-1.4,2.1-2.9S96.3-167.8,94.7-167.8z"/>
				<path id="Path_65" d="M102.8-164.3c0.1,1.6,0.8,2.3,2.2,2.3c0.8,0,1.6-0.4,2-1.2h2.2c-0.5,1.9-2.3,3.1-4.2,3
					c-2.5,0.1-4.5-1.8-4.6-4.3c0-0.2,0-0.3,0-0.5c-0.1-2.5,1.8-4.7,4.3-4.8c0.1,0,0.2,0,0.3,0c3.1,0,4.6,2.6,4.4,5.4h-6.6V-164.3z
					 M106.8-165.9c-0.2-1.3-0.8-1.9-2-1.9c-1.1-0.1-2,0.8-2.1,1.9c0,0,0,0,0,0H106.8z"/>
				<path id="Path_66" d="M110.4-169.4h2.4v1.3h0.1c0.6-1,1.7-1.5,2.8-1.5c2.6,0,3.3,1.5,3.3,3.7v5.6h-2.5v-5.1
					c0-1.5-0.4-2.2-1.6-2.2c-1.3,0-1.9,0.8-1.9,2.6v4.7h-2.5v-9.1H110.4z"/>
				<path id="Path_67" d="M123.6-169.4h1.8v1.7h-1.8v4.5c0,0.8,0.2,1,1,1c0.3,0,0.5,0,0.8-0.1v1.9c-0.5,0.1-1,0.1-1.5,0.1
					c-1.5,0-2.8-0.3-2.8-2.1v-5.3h-1.5v-1.7h1.5v-2.7h2.5V-169.4z"/>
				<path id="Path_68" d="M126.3-172.9h2.5v12.5h-2.5V-172.9z"/>
				<path id="Path_69" d="M134.8-159.2c-0.5,1.5-1.4,2-3.1,2c-0.5,0-1,0-1.5-0.1v-2c0.5,0,1,0.1,1.5,0.1c0.9-0.1,1.1-1,0.9-1.7
					l-3.2-8.5h2.7l2,6.2l0,0l2-6.2h2.6L134.8-159.2z"/>
				<path id="Path_70" d="M148-169.7c2.5-0.1,4.6,1.8,4.7,4.3c0,0.2,0,0.4,0,0.5c0.2,2.4-1.6,4.6-4,4.8c-0.2,0-0.4,0-0.7,0
					c-2.7,0-4.8-2.2-4.8-4.8C143.2-167.6,145.4-169.7,148-169.7z M148-162c1.7,0,2.2-1.5,2.2-2.9c0-1.5-0.5-2.9-2.2-2.9
					s-2.2,1.5-2.2,2.9S146.3-162,148-162z"/>
				<path id="Path_71" d="M153.6-169.4h2.4v1.7l0,0c0.5-1.1,1.7-1.9,2.9-1.9c0.2,0,0.4,0,0.5,0.1v2.3c-0.3-0.1-0.6-0.1-0.9-0.1
					c-1.8,0-2.4,1.3-2.4,2.9v4.1h-2.5V-169.4z"/>
				<path id="Path_72" d="M168.7-161c0,1.5-0.5,4-4.7,4c-1.8,0-3.9-0.8-4-2.9h2.5c0.2,0.9,1,1.2,1.9,1.2c1.4,0,2-0.9,2-2.2v-1.2l0,0
					c-0.6,0.9-1.6,1.4-2.7,1.4c-2.7,0-3.9-2.1-3.9-4.5c0-2.3,1.3-4.5,3.9-4.5c1.1-0.1,2.2,0.5,2.7,1.5l0,0v-1.2h2.4L168.7-161
					L168.7-161z M166.3-165c0-1.5-0.5-2.8-2.1-2.8c-1.4,0-2,1.2-2,2.6c0,1.3,0.5,2.7,2,2.7c1.2-0.1,2.2-1.1,2.1-2.3
					C166.3-164.9,166.3-164.9,166.3-165z"/>
				<path id="Path_73" d="M169.9-166.6c0.1-2.3,2.2-3,4.2-3c1.8,0,4,0.4,4,2.6v4.7c0,0.7,0.1,1.4,0.3,2h-2.5
					c-0.1-0.3-0.2-0.6-0.2-0.9c-0.8,0.8-1.9,1.1-3,1.1c-1.7,0-3.1-0.9-3.1-2.7c0-2,1.5-2.5,3.1-2.7c1.5-0.2,2.9-0.2,2.9-1.2
					c0-1.1-0.7-1.2-1.6-1.2s-1.6,0.4-1.6,1.4h-2.5L169.9-166.6z M175.6-164.8c-0.4,0.4-1.3,0.4-2.1,0.5c-0.8,0.2-1.5,0.4-1.5,1.3
					s0.7,1.2,1.5,1.2c1,0.1,1.9-0.7,2-1.7c0-0.1,0-0.3,0-0.4v-0.9H175.6z"/>
				<path id="Path_74" d="M179.7-169.4h2.4v1.3h0.1c0.6-1,1.7-1.5,2.8-1.5c2.6,0,3.3,1.5,3.3,3.7v5.6h-2.5v-5.1
					c0-1.5-0.4-2.2-1.6-2.2c-1.3,0-1.9,0.8-1.9,2.6v4.7h-2.5v-9.1H179.7z"/>
				<path id="Path_75" d="M191.9-170.8h-2.5v-2h2.5V-170.8z M189.4-169.4h2.5v9h-2.5V-169.4z"/>
				<path id="Path_76" d="M192.9-162.2l4.7-5.3h-4.3v-1.9h7.6v1.9l-4.7,5.3h5v1.9h-8.3V-162.2z"/>
				<path id="Path_77" d="M204.3-164.3c0.1,1.6,0.8,2.3,2.2,2.3c0.8,0,1.6-0.4,2-1.2h2.2c-0.5,1.9-2.3,3.1-4.2,3
					c-2.5,0.1-4.5-1.8-4.6-4.3c0-0.2,0-0.3,0-0.5c-0.1-2.5,1.8-4.7,4.3-4.8c0.1,0,0.2,0,0.3,0c3.1,0,4.6,2.6,4.4,5.4h-6.6
					L204.3-164.3z M208.3-165.9c-0.2-1.3-0.8-1.9-2-1.9c-1.1-0.1-2,0.8-2.1,1.9c0,0,0,0,0,0H208.3z"/>
				<path id="Path_78" d="M218.3-161.5L218.3-161.5c-0.6,1-1.7,1.5-2.8,1.4c-2.7,0-4.1-2.3-4.1-4.8c0-2.4,1.3-4.7,4-4.7
					c1.1,0,2.1,0.5,2.7,1.3l0,0v-4.5h2.5v12.5h-2.4v-1.2H218.3z M216.2-167.8c-1.6,0-2.2,1.4-2.2,2.9c0,1.4,0.6,2.9,2.2,2.9
					s2.1-1.4,2.1-2.9S217.8-167.8,216.2-167.8z"/>
				<path id="Path_79" d="M229.7-170.5H226v-2.3h10.2v2.3h-3.7v10.2h-2.7v-10.2H229.7z"/>
				<path id="Path_80" d="M237.3-172.9h9.3v2.3H240v2.7h6v2.1h-6v3.1h6.7v2.3h-9.5v-12.5H237.3z"/>
				<path id="Path_81" d="M247.9-172.9h5.4c3.2,0,5.7,2,5.7,6.2c0,3.6-1.9,6.3-5.7,6.3h-5.4L247.9-172.9L247.9-172.9z M250.7-162.7
					h2.4c1.6,0,3.1-1,3.1-3.7c0-2.5-0.9-4.1-3.6-4.1h-2v7.8H250.7z"/>
				<path id="Path_82" d="M266.8-164.3c0.1,1.6,0.8,2.3,2.2,2.3c0.8,0,1.6-0.4,2-1.2h2.2c-0.5,1.9-2.3,3.1-4.2,3
					c-2.5,0.1-4.5-1.8-4.6-4.3c0-0.2,0-0.3,0-0.5c-0.1-2.5,1.8-4.7,4.3-4.8c0.1,0,0.2,0,0.3,0c3.1,0,4.6,2.6,4.4,5.4h-6.6V-164.3z
					 M270.8-165.9c-0.2-1.3-0.8-1.9-2-1.9c-1.1-0.1-2,0.8-2.1,1.9c0,0,0,0,0,0H270.8z"/>
				<path id="Path_83" d="M279.1-160.4h-2.8l-3.1-9h2.6l1.9,6.2l0,0l1.9-6.2h2.5L279.1-160.4z"/>
				<path id="Path_84" d="M284.5-164.3c0.1,1.6,0.8,2.3,2.2,2.3c0.8,0,1.6-0.4,2-1.2h2.2c-0.5,1.9-2.3,3.1-4.2,3
					c-2.5,0.1-4.5-1.8-4.6-4.3c0-0.2,0-0.3,0-0.5c-0.1-2.5,1.8-4.7,4.3-4.8c0.1,0,0.2,0,0.3,0c3.1,0,4.6,2.6,4.4,5.4h-6.6V-164.3z
					 M288.6-165.9c-0.2-1.3-0.8-1.9-2-1.9c-1.1-0.1-2,0.8-2.1,1.9c0,0,0,0,0,0H288.6z"/>
				<path id="Path_85" d="M292.2-169.4h2.4v1.3h0.1c0.6-1,1.7-1.5,2.8-1.5c2.6,0,3.3,1.5,3.3,3.7v5.6h-2.5v-5.1
					c0-1.5-0.4-2.2-1.6-2.2c-1.3,0-1.9,0.8-1.9,2.6v4.7h-2.5L292.2-169.4L292.2-169.4z"/>
				<path id="Path_86" d="M305.3-169.4h1.8v1.7h-1.8v4.5c0,0.8,0.2,1,1,1c0.3,0,0.5,0,0.8-0.1v1.9c-0.5,0.1-1,0.1-1.5,0.1
					c-1.5,0-2.8-0.3-2.8-2.1v-5.3h-1.5v-1.7h1.5v-2.7h2.5V-169.4z"/>
			</g>
		</g>
		<g id="Group_16">
			<g id="Group_13">
				<path id="Path_87" class="st6" d="M12.5-272.6H0.9v-10.6H37v10.6H25.3v30.9H12.5V-272.6z"/>
				<path id="Path_88" class="st6" d="M38.9-283.2h35v10.6H51.7v5.2h22.2v9.9H51.7v5.2h22.2v10.6h-35V-283.2z"/>
				<path id="Path_89" class="st6" d="M76.1-283.2h21c13.8,0,18.7,10.2,18.7,20.7c0,12.7-6.7,20.8-21.2,20.8H76.1V-283.2z
					 M88.9-252.3h5c8,0,9.1-6.5,9.1-10.4c0-2.6-0.8-9.9-10.1-9.9h-4.1L88.9-252.3L88.9-252.3z"/>
			</g>
			<g id="Group_15">
				<g id="Group_14">
					<path id="Path_90" class="st6" d="M134.2-257.7l-3.9-6.5l-3.8,6.5h-9.4l8.9-13.1l-8.5-12.5h9.4l3.5,6.2l3.6-6.2h9.4l-8.6,12.5
						l8.9,13.1H134.2z"/>
				</g>
			</g>
		</g>
		<g id="Group_17">
			<path id="Path_91" d="M34.3-217.3c-1.2-5.8-5.8-8.8-11.5-8.8c-9.8,0-14,8.1-14,16.7c0,9.4,4.2,17.2,14,17.2
				c7.1,0,11.4-5.1,11.9-11.9h5.5c-1.1,10.3-7.4,16.5-17.8,16.5c-12.7,0-19-9.5-19-21.4s6.8-21.7,19.5-21.7
				c8.6,0,15.7,4.6,16.9,13.4H34.3z"/>
			<path id="Path_92" d="M59.1-219c9.5,0,14.5,6.9,14.5,15.6c0,8.7-5,15.6-14.5,15.6s-14.5-6.9-14.5-15.6
				C44.6-212.1,49.6-219,59.1-219z M59.1-192.1c5.1,0,9.3-4,9.3-11.2c0-7.2-4.2-11.3-9.3-11.3s-9.3,4.1-9.3,11.3
				S53.9-192.1,59.1-192.1z"/>
			<path id="Path_93" d="M92.7-188.5h-5.2l-11.1-29.8h5.5l8.4,24.8h0.1l8.1-24.8h5.1L92.7-188.5z"/>
			<path id="Path_94" d="M133.5-198c-1.3,6.6-6,10.1-12.7,10.1c-9.5,0-14-6.6-14.3-15.7c0-9,5.9-15.5,14-15.5
				c10.6,0,13.8,9.9,13.5,17.1h-22.3c-0.2,5.2,2.8,9.8,9.3,9.8c4.1,0,6.9-1.9,7.7-5.8H133.5z M128.8-206.3c-0.3-4.7-3.7-8.4-8.6-8.4
				c-5.1,0-8.2,3.8-8.5,8.4H128.8z"/>
			<path id="Path_95" d="M139.1-218.3h4.6v4.7h0.1c2.1-3.7,5.4-5.4,9.7-5.4c7.8,0,10.3,4.5,10.3,10.9v19.6h-4.9v-20.2
				c0-3.7-2.3-6-6.1-6c-5.9,0-8.8,4-8.8,9.3v16.8h-4.9L139.1-218.3L139.1-218.3z"/>
			<path id="Path_96" d="M197.6-188.6c-1.1,0.6-2.3,0.8-3.5,0.8c-2.5,0-4.2-1.4-4.2-4.6c-2.6,3.1-6.5,4.8-10.5,4.6
				c-5.4,0-9.9-2.4-9.9-8.4c0-6.7,5-8.2,10.1-9.2c5.4-1.1,10-0.6,10-4.4c0-4.3-3.6-5-6.6-5c-4.1,0-7.2,1.3-7.4,5.7h-4.9
				c0.3-7.4,5.9-10,12.6-10c5.4,0,11.2,1.2,11.2,8.2v15.3c0,2.3,0,3.3,1.6,3.3c0.5,0,1-0.1,1.5-0.3L197.6-188.6L197.6-188.6z
				 M189.6-203.9c-3.8,2.8-14.9,0.1-14.9,7.4c0,3.2,2.8,4.4,5.8,4.4c6.5,0,9.1-4,9.1-6.7L189.6-203.9L189.6-203.9z"/>
			<path id="Path_97" d="M202.1-218.3h4.6v4.7h0.1c2.1-3.7,5.4-5.4,9.7-5.4c7.8,0,10.3,4.5,10.3,10.9v19.6h-4.9v-20.2
				c0-3.7-2.3-6-6.1-6c-5.9,0-8.8,4-8.8,9.3v16.8h-4.9L202.1-218.3L202.1-218.3z"/>
			<path id="Path_98" d="M241-218.3h5.9v4.3H241v18.5c0,2.3,0.6,2.7,3.7,2.7h2.2v4.3h-3.7c-5.1,0-7.1-1-7.1-6.5v-19H231v-4.3h5.1
				v-8.9h4.9V-218.3z"/>
			<path id="Path_99" d="M302-203.4c0,10.4-5.9,15.9-16.2,15.9c-10.6,0-16.9-4.9-16.9-15.9v-26.3h5.5v26.3c0,7.3,4.1,11.2,11.4,11.2
				c7,0,10.7-3.9,10.7-11.2v-26.3h5.5V-203.4z"/>
			<path id="Path_100" d="M310-218.3h4.6v4.7h0.1c2.1-3.7,5.4-5.4,9.7-5.4c7.8,0,10.3,4.5,10.3,10.9v19.6h-4.9v-20.2
				c0-3.7-2.3-6-6.1-6c-5.9,0-8.8,4-8.8,9.3v16.8H310V-218.3z"/>
			<path id="Path_101" d="M347.2-223.7h-4.9v-6h4.9V-223.7z M342.3-218.3h4.9v29.8h-4.9V-218.3z"/>
			<path id="Path_102" d="M368.3-188.5H363l-11-29.8h5.5l8.4,24.8h0.1l8-24.8h5.1L368.3-188.5z"/>
			<path id="Path_103" d="M409.1-198c-1.3,6.6-6,10.1-12.7,10.1c-9.5,0-14-6.6-14.3-15.7c0-9,5.9-15.5,14-15.5
				c10.6,0,13.8,9.9,13.5,17.1h-22.3c-0.2,5.2,2.8,9.8,9.3,9.8c4.1,0,6.9-1.9,7.7-5.8H409.1z M404.4-206.3c-0.3-4.7-3.7-8.4-8.6-8.4
				c-5.1,0-8.2,3.8-8.5,8.4H404.4z"/>
			<path id="Path_104" d="M414.5-218.3h4.6v6.3h0.1c2.4-4.8,5.6-7.2,11-7v5.2c-7.9,0-10.8,4.4-10.8,12v13.3h-4.9L414.5-218.3
				L414.5-218.3z"/>
			<path id="Path_105" d="M436.8-197.9c0.2,4.4,4,5.8,8,5.8c3.1,0,7.2-0.7,7.2-4.4c0-7.7-19.5-2.5-19.5-14c0-6,5.9-8.5,11.1-8.5
				c6.7,0,11.8,2.1,12.2,9.3H451c-0.3-3.8-3.7-5-6.9-5c-2.9,0-6.3,0.8-6.3,3.8c0,3.5,5.2,4.2,9.7,5.2c4.9,1.1,9.7,2.8,9.7,8.5
				c0,7.1-6.6,9.4-12.7,9.4c-6.7,0-12.3-2.7-12.6-10.1L436.8-197.9L436.8-197.9z"/>
			<path id="Path_106" d="M467.9-223.7H463v-6h4.9V-223.7z M463-218.3h4.9v29.8H463V-218.3z"/>
			<path id="Path_107" d="M482.3-218.3h5.9v4.3h-5.9v18.5c0,2.3,0.6,2.7,3.7,2.7h2.2v4.3h-3.7c-5.1,0-7.1-1-7.1-6.5v-19h-5.1v-4.3
				h5.1v-8.9h4.9V-218.3z"/>
			<path id="Path_108" d="M505.3-184.5c-2.3,5.8-4.3,8-8.6,8c-1.2,0-2.3-0.1-3.4-0.5v-4.5c0.9,0.4,1.9,0.6,2.9,0.7
				c2,0,3.1-0.9,4-2.7l2-5.1l-11.8-29.7h5.5l8.7,24.4h0.1l8.4-24.4h5.2L505.3-184.5z"/>
		</g>
	</g>
	<text transform="matrix(1 0 0 1 3.355 -61.063)" class="st8 st11 st10">7.10.17</text>
</g>
<path id="Rectangle_5" class="st6" d="M1377,455.7h141c8.3,0,15,6.7,15,15v14c0,8.3-6.7,15-15,15h-141c-8.3,0-15-6.7-15-15v-14
	C1362,462.4,1368.7,455.7,1377,455.7z"/>
<text transform="matrix(1 0 0 1 1405 482.7)" class="st12 st13 st14">Register Here</text>
</svg>
