<?xml version="1.0" encoding="utf-8"?>
<!-- Generator: Adobe Illustrator 21.1.0, SVG Export Plug-In . SVG Version: 6.00 Build 0)  -->
<svg version="1.1" id="Layer_1" xmlns="http://www.w3.org/2000/svg" xmlns:xlink="http://www.w3.org/1999/xlink" x="0px" y="0px"
	 viewBox="0 0 529.9 231.9" style="enable-background:new 0 0 529.9 231.9;" xml:space="preserve">
<style type="text/css">
	.st0{enable-background:new    ;}
	.st1{fill:#EE3424;}
	.st2{fill:#EE3724;}
</style>
<g>
	<g>
		<g class="st0">
			<path class="st1" d="M3,145.3h2.8v16l17.3-16H27l-13.3,12.3l13.9,17.5H24l-12.4-15.5l-5.7,5.3v10.2H3V145.3z"/>
			<path class="st1" d="M31.1,165c0,3.8,2.1,8.5,7.1,8.5c3.8,0,5.9-2.2,6.8-5.5h2.6c-1.1,4.9-3.9,7.7-9.4,7.7
				c-6.8,0-9.7-5.3-9.7-11.4c0-5.7,2.9-11.4,9.7-11.4c6.9,0,9.7,6.1,9.5,12.1H31.1z M45.1,162.8c-0.1-4-2.6-7.7-6.8-7.7
				c-4.3,0-6.6,3.8-7.1,7.7H45.1z"/>
			<path class="st1" d="M52.8,165c0,3.8,2.1,8.5,7.1,8.5c3.8,0,5.9-2.2,6.8-5.5h2.6c-1.1,4.9-3.9,7.7-9.4,7.7
				c-6.8,0-9.7-5.3-9.7-11.4c0-5.7,2.9-11.4,9.7-11.4c6.9,0,9.7,6.1,9.5,12.1H52.8z M66.7,162.8c-0.1-4-2.6-7.7-6.8-7.7
				c-4.3,0-6.6,3.8-7.1,7.7H66.7z"/>
			<path class="st1" d="M72.9,153.6h2.4v4.1h0.1c1.2-3,4.2-4.7,7.7-4.7c6.6,0,9.7,5.3,9.7,11.4c0,6.1-3.1,11.4-9.7,11.4
				c-3.2,0-6.3-1.6-7.5-4.7h-0.1v12.1h-2.6V153.6z M83.1,155.1c-5.8,0-7.6,4.3-7.6,9.2c0,4.5,2,9.2,7.6,9.2c5,0,7.1-4.7,7.1-9.2
				C90.2,159.9,88.1,155.1,83.1,155.1z"/>
			<path class="st1" d="M112.7,153.6h4.4v2.2h-4.4v14.5c0,1.7,0.3,2.7,2.1,2.8c0.8,0,1.5,0,2.3-0.1v2.3c-0.8,0-1.5,0.1-2.3,0.1
				c-3.5,0-4.7-1.2-4.7-4.8v-14.7h-3.8v-2.2h3.8v-6.5h2.6V153.6z"/>
			<path class="st1" d="M120.8,145.3h2.6v12h0.1c1-2.6,3.8-4.3,6.9-4.3c6.1,0,7.9,3.2,7.9,8.3v13.9h-2.6v-13.4
				c0-3.7-1.2-6.5-5.5-6.5c-4.2,0-6.6,3.2-6.8,7.4v12.6h-2.6V145.3z"/>
			<path class="st1" d="M144.8,165c0,3.8,2.1,8.5,7.1,8.5c3.8,0,5.9-2.2,6.8-5.5h2.6c-1.1,4.9-3.9,7.7-9.4,7.7
				c-6.8,0-9.7-5.3-9.7-11.4c0-5.7,2.9-11.4,9.7-11.4c6.9,0,9.7,6.1,9.5,12.1H144.8z M158.8,162.8c-0.1-4-2.6-7.7-6.8-7.7
				c-4.3,0-6.6,3.8-7.1,7.7H158.8z"/>
			<path class="st1" d="M198.9,154.3c-1-4.6-4.8-7.2-9.1-7.2c-7.9,0-11.2,6.6-11.2,13.1c0,6.5,3.3,13.1,11.2,13.1
				c5.5,0,9-4.3,9.6-9.6h2.8c-0.8,7.3-5.4,12-12.4,12c-9.4,0-14.1-7.3-14.1-15.5s4.7-15.5,14.1-15.5c5.7,0,11.2,3.4,12,9.6H198.9z"
				/>
			<path class="st1" d="M225.3,164.3c0,6.2-3.6,11.4-10.2,11.4c-6.6,0-10.2-5.2-10.2-11.4c0-6.2,3.6-11.4,10.2-11.4
				C221.6,152.9,225.3,158.1,225.3,164.3z M207.5,164.3c0,4.6,2.5,9.2,7.6,9.2c5,0,7.6-4.6,7.6-9.2c0-4.6-2.5-9.2-7.6-9.2
				C210.1,155.1,207.5,159.8,207.5,164.3z"/>
			<path class="st1" d="M229.2,153.6h2.6v3.7h0.1c1-2.6,3.8-4.3,6.9-4.3c6.1,0,7.9,3.2,7.9,8.3v13.9H244v-13.4
				c0-3.7-1.2-6.5-5.5-6.5c-4.2,0-6.6,3.2-6.8,7.4v12.6h-2.6V153.6z"/>
			<path class="st1" d="M249.2,153.6h2.9l6.8,18.9h0.1l6.7-18.9h2.7l-8.1,21.5h-2.8L249.2,153.6z"/>
			<path class="st1" d="M272.5,165c0,3.8,2.1,8.5,7.1,8.5c3.8,0,5.9-2.2,6.8-5.5h2.6c-1.1,4.9-3.9,7.7-9.4,7.7
				c-6.8,0-9.7-5.3-9.7-11.4c0-5.7,2.9-11.4,9.7-11.4c6.9,0,9.7,6.1,9.5,12.1H272.5z M286.5,162.8c-0.1-4-2.6-7.7-6.8-7.7
				c-4.3,0-6.6,3.8-7.1,7.7H286.5z"/>
			<path class="st1" d="M292.6,153.6h2.4v5.1h0.1c1.3-3.5,4.3-5.5,8.1-5.3v2.6c-4.8-0.2-8,3.2-8,7.7v11.5h-2.6V153.6z"/>
			<path class="st1" d="M318.7,159.9c-0.1-3.3-2.6-4.7-5.6-4.7c-2.3,0-5.1,0.9-5.1,3.7c0,2.3,2.6,3.2,4.5,3.6l3.5,0.8
				c3,0.5,6.1,2.2,6.1,6c0,4.7-4.6,6.5-8.6,6.5c-5.1,0-8.4-2.3-8.9-7.6h2.6c0.2,3.5,2.8,5.4,6.3,5.4c2.5,0,5.9-1.1,5.9-4.1
				c0-2.5-2.3-3.3-4.7-3.9l-3.4-0.8c-3.4-0.9-6-2.1-6-5.8c0-4.4,4.3-6.1,8.1-6.1c4.3,0,7.7,2.3,7.9,6.9H318.7z"/>
			<path class="st1" d="M325.6,160.1c0.3-5.1,3.8-7.2,8.7-7.2c3.8,0,7.9,1.1,7.9,6.9v11.4c0,1,0.5,1.6,1.5,1.6c0.3,0,0.5,0,0.8-0.2
				v2.2c-0.6,0.1-1,0.2-1.7,0.2c-2.7,0-3.1-1.5-3.1-3.8h-0.1c-1.9,2.8-3.7,4.4-7.9,4.4c-4,0-7.2-2-7.2-6.3c0-6,5.9-6.3,11.6-6.9
				c2.2-0.2,3.4-0.6,3.4-2.9c0-3.5-2.5-4.4-5.6-4.4c-3.3,0-5.6,1.5-5.8,5H325.6z M339.7,163.3L339.7,163.3c-0.4,0.6-1.6,0.8-2.3,1
				c-4.5,0.8-10,0.8-10,5c0,2.6,2.3,4.3,4.8,4.3c4.1,0,7.5-2.5,7.5-6.8V163.3z"/>
			<path class="st1" d="M351.7,153.6h4.4v2.2h-4.4v14.5c0,1.7,0.3,2.7,2.1,2.8c0.8,0,1.5,0,2.3-0.1v2.3c-0.8,0-1.5,0.1-2.3,0.1
				c-3.5,0-4.7-1.2-4.7-4.8v-14.7h-3.8v-2.2h3.8v-6.5h2.6V153.6z"/>
			<path class="st1" d="M360,145.3h2.6v4.2H360V145.3z M360,153.6h2.6v21.5H360V153.6z"/>
			<path class="st1" d="M386.9,164.3c0,6.2-3.6,11.4-10.2,11.4c-6.6,0-10.2-5.2-10.2-11.4c0-6.2,3.6-11.4,10.2-11.4
				C383.3,152.9,386.9,158.1,386.9,164.3z M369.2,164.3c0,4.6,2.5,9.2,7.6,9.2c5,0,7.6-4.6,7.6-9.2c0-4.6-2.5-9.2-7.6-9.2
				C371.7,155.1,369.2,159.8,369.2,164.3z"/>
			<path class="st1" d="M390.8,153.6h2.6v3.7h0.1c1-2.6,3.8-4.3,6.9-4.3c6.1,0,7.9,3.2,7.9,8.3v13.9h-2.6v-13.4
				c0-3.7-1.2-6.5-5.5-6.5c-4.2,0-6.6,3.2-6.8,7.4v12.6h-2.6V153.6z"/>
			<path class="st1" d="M450.9,175.1h-2l-0.4-5.4h-0.1c-2,4.3-6,6.1-10.3,6.1c-9.4,0-14.1-7.3-14.1-15.5s4.7-15.5,14.1-15.5
				c6.3,0,11.3,3.4,12.4,9.9h-2.8c-0.3-3.4-4-7.5-9.6-7.5c-7.9,0-11.2,6.6-11.2,13.1c0,6.5,3.3,13.1,11.2,13.1
				c6.6,0,10.4-4.6,10.3-10.9h-10.1v-2.4h12.7V175.1z"/>
			<path class="st1" d="M475.2,164.3c0,6.2-3.6,11.4-10.2,11.4s-10.2-5.2-10.2-11.4c0-6.2,3.6-11.4,10.2-11.4
				S475.2,158.1,475.2,164.3z M457.4,164.3c0,4.6,2.5,9.2,7.6,9.2s7.6-4.6,7.6-9.2c0-4.6-2.5-9.2-7.6-9.2S457.4,159.8,457.4,164.3z"
				/>
			<path class="st1" d="M479.1,145.3h2.6v4.2h-2.6V145.3z M479.1,153.6h2.6v21.5h-2.6V153.6z"/>
			<path class="st1" d="M486.8,153.6h2.6v3.7h0.1c1-2.6,3.8-4.3,6.9-4.3c6.1,0,7.9,3.2,7.9,8.3v13.9h-2.6v-13.4
				c0-3.7-1.2-6.5-5.5-6.5c-4.2,0-6.6,3.2-6.8,7.4v12.6h-2.6V153.6z"/>
			<path class="st1" d="M527.4,173.3c0,6.5-2.6,10.4-9.6,10.4c-4.3,0-8.6-2-8.9-6.5h2.6c0.5,3.2,3.4,4.3,6.3,4.3
				c4.9,0,6.9-2.8,6.9-8.1v-2.9h-0.1c-1.2,2.7-3.7,4.4-6.8,4.4c-6.9,0-9.7-4.9-9.7-11.1c0-5.9,3.5-10.9,9.7-10.9
				c3.2,0,5.8,2,6.8,4.3h0.1v-3.7h2.6V173.3z M524.8,164.1c0-4.2-1.9-8.9-6.9-8.9c-5,0-7.1,4.5-7.1,8.9c0,4.3,2.2,8.6,7.1,8.6
				C522.4,172.6,524.8,168.4,524.8,164.1z"/>
		</g>
	</g>
	<g>
		<g>
			<g>
				<path class="st2" d="M4.1,118.2l-3-4.3H4l1.6,2.4l1.6-2.4h2.7l-3,4.2l3.3,4.8H7.4l-1.9-2.8l-1.9,2.8H0.9L4.1,118.2z"/>
				<path d="M22,117.6h-8.8v-1.9H22V117.6z M22,121.3h-8.8v-1.9H22V121.3z"/>
				<path d="M28.8,112.5h-2.5v-2h2.5V112.5z M26.3,113.9h2.5v9h-2.5V113.9z"/>
				<path d="M30.4,113.9h2.4v1.3h0.1c0.6-1,1.7-1.5,2.8-1.5c2.6,0,3.3,1.5,3.3,3.7v5.6h-2.5v-5.1c0-1.5-0.4-2.2-1.6-2.2
					c-1.3,0-1.9,0.8-1.9,2.6v4.7h-2.5L30.4,113.9L30.4,113.9z"/>
				<path d="M46.8,121.8L46.8,121.8c-0.6,1-1.6,1.4-2.8,1.4c-2.7,0-4.1-2.3-4.1-4.8c0-2.4,1.3-4.7,4-4.7c1.1,0,2.1,0.5,2.7,1.3l0,0
					l0,0v-4.5h2.5V123h-2.4L46.8,121.8L46.8,121.8z M44.7,115.5c-1.6,0-2.2,1.4-2.2,2.9c0,1.4,0.6,2.9,2.2,2.9
					c1.6,0,2.1-1.4,2.1-2.9S46.3,115.5,44.7,115.5z"/>
				<path d="M52.8,119c0.1,1.6,0.8,2.3,2.2,2.3c1,0,1.8-0.6,2-1.2h2.2c-0.7,2.1-2.2,3-4.2,3c-2.8,0-4.6-2-4.6-4.8
					c0-2.7,1.9-4.8,4.6-4.8c3.1,0,4.6,2.6,4.4,5.4L52.8,119L52.8,119z M56.8,117.4c-0.2-1.3-0.8-1.9-2-1.9c-1.6,0-2,1.2-2.1,1.9
					H56.8z"/>
				<path d="M60.4,113.9h2.4v1.2l0,0c0.6-1,1.6-1.4,2.7-1.4c2.8,0,4.1,2.3,4.1,4.9c0,2.4-1.3,4.7-4,4.7c-1.1,0-2.1-0.5-2.7-1.4l0,0
					v4.3h-2.5C60.4,126.2,60.4,113.9,60.4,113.9z M67.1,118.4c0-1.4-0.6-2.9-2.2-2.9s-2.1,1.5-2.1,2.9c0,1.5,0.6,2.9,2.2,2.9
					S67.1,119.9,67.1,118.4z"/>
				<path d="M72.8,119c0.1,1.6,0.8,2.3,2.2,2.3c1,0,1.8-0.6,2-1.2h2.2c-0.7,2.1-2.2,3-4.2,3c-2.8,0-4.6-2-4.6-4.8
					c0-2.7,1.9-4.8,4.6-4.8c3.1,0,4.6,2.6,4.4,5.4L72.8,119L72.8,119z M76.8,117.4c-0.2-1.3-0.8-1.9-2-1.9c-1.6,0-2,1.2-2.1,1.9
					H76.8z"/>
				<path d="M80.4,113.9h2.4v1.3h0.1c0.6-1,1.7-1.5,2.8-1.5c2.6,0,3.3,1.5,3.3,3.7v5.6h-2.5v-5.1c0-1.5-0.4-2.2-1.6-2.2
					c-1.3,0-1.9,0.8-1.9,2.6v4.7h-2.5v-9.1H80.4z"/>
				<path d="M96.9,121.8L96.9,121.8c-0.6,1-1.6,1.4-2.8,1.4c-2.7,0-4.1-2.3-4.1-4.8c0-2.4,1.3-4.7,4-4.7c1.1,0,2.1,0.5,2.7,1.3l0,0
					l0,0v-4.5h2.5V123h-2.4v-1.2H96.9z M94.7,115.5c-1.6,0-2.2,1.4-2.2,2.9c0,1.4,0.6,2.9,2.2,2.9s2.1-1.4,2.1-2.9
					C96.8,116.9,96.3,115.5,94.7,115.5z"/>
				<path d="M102.8,119c0.1,1.6,0.8,2.3,2.2,2.3c1,0,1.8-0.6,2-1.2h2.2c-0.7,2.1-2.2,3-4.2,3c-2.8,0-4.6-2-4.6-4.8
					c0-2.7,1.9-4.8,4.6-4.8c3.1,0,4.6,2.6,4.4,5.4L102.8,119L102.8,119z M106.8,117.4c-0.2-1.3-0.8-1.9-2-1.9c-1.6,0-2,1.2-2.1,1.9
					H106.8z"/>
				<path d="M110.4,113.9h2.4v1.3h0.1c0.6-1,1.7-1.5,2.8-1.5c2.6,0,3.3,1.5,3.3,3.7v5.6h-2.5v-5.1c0-1.5-0.4-2.2-1.6-2.2
					c-1.3,0-1.9,0.8-1.9,2.6v4.7h-2.5v-9.1H110.4z"/>
				<path d="M123.6,113.9h1.8v1.7h-1.8v4.5c0,0.8,0.2,1,1,1c0.3,0,0.5,0,0.8-0.1v1.9c-0.4,0.1-1,0.1-1.5,0.1c-1.5,0-2.8-0.3-2.8-2.1
					v-5.3h-1.5v-1.7h1.5v-2.7h2.5V113.9z"/>
				<path d="M126.3,110.4h2.5v12.5h-2.5V110.4z"/>
				<path d="M134.8,124.1c-0.5,1.5-1.4,2-3.1,2c-0.5,0-1,0-1.5-0.1v-2c0.5,0,1,0.1,1.5,0.1c0.9-0.1,1.1-1,0.9-1.7l-3.2-8.5h2.7
					l2,6.2l0,0l2-6.2h2.6L134.8,124.1z"/>
				<path d="M148,113.6c2.8,0,4.7,1.9,4.7,4.8s-1.8,4.8-4.7,4.8c-2.8,0-4.7-1.9-4.7-4.8S145.2,113.6,148,113.6z M148,121.3
					c1.7,0,2.2-1.5,2.2-2.9c0-1.5-0.5-2.9-2.2-2.9s-2.2,1.5-2.2,2.9S146.3,121.3,148,121.3z"/>
				<path d="M153.6,113.9h2.4v1.7l0,0c0.5-1.1,1.7-1.9,2.9-1.9c0.2,0,0.4,0,0.5,0.1v2.3c-0.2-0.1-0.6-0.1-0.9-0.1
					c-1.8,0-2.4,1.3-2.4,2.9v4.1h-2.5V113.9z"/>
				<path d="M168.7,122.3c0,1.5-0.5,4-4.7,4c-1.8,0-3.9-0.8-4-2.9h2.5c0.2,0.9,1,1.2,1.9,1.2c1.4,0,2-0.9,2-2.2v-1.2l0,0
					c-0.5,0.9-1.6,1.4-2.7,1.4c-2.7,0-3.9-2.1-3.9-4.5c0-2.3,1.3-4.5,3.9-4.5c1.2,0,2.1,0.4,2.7,1.5l0,0v-1.2h2.4L168.7,122.3
					L168.7,122.3z M166.3,118.3c0-1.5-0.5-2.8-2.1-2.8c-1.4,0-2,1.2-2,2.6c0,1.3,0.5,2.7,2,2.7C165.6,120.8,166.3,119.6,166.3,118.3
					z"/>
				<path d="M169.9,116.7c0.1-2.3,2.2-3,4.2-3c1.8,0,4,0.4,4,2.6v4.7c0,0.8,0.1,1.6,0.3,2h-2.5c-0.1-0.3-0.2-0.6-0.2-0.9
					c-0.8,0.8-1.9,1.1-3,1.1c-1.7,0-3.1-0.9-3.1-2.7c0-2,1.5-2.5,3.1-2.7c1.5-0.2,2.9-0.2,2.9-1.2c0-1.1-0.7-1.2-1.6-1.2
					c-0.9,0-1.6,0.4-1.6,1.4h-2.5V116.7z M175.6,118.5c-0.4,0.4-1.3,0.4-2.1,0.5c-0.8,0.2-1.5,0.4-1.5,1.3s0.7,1.2,1.5,1.2
					c1.9,0,2-1.5,2-2.1v-0.9H175.6z"/>
				<path d="M179.7,113.9h2.4v1.3h0.1c0.6-1,1.7-1.5,2.8-1.5c2.6,0,3.3,1.5,3.3,3.7v5.6h-2.5v-5.1c0-1.5-0.4-2.2-1.6-2.2
					c-1.3,0-1.9,0.8-1.9,2.6v4.7h-2.5v-9.1H179.7z"/>
				<path d="M191.9,112.5h-2.5v-2h2.5V112.5z M189.4,113.9h2.5v9h-2.5V113.9z"/>
				<path d="M192.9,121.1l4.7-5.3h-4.3v-1.9h7.6v1.9l-4.7,5.3h5v1.9h-8.3V121.1z"/>
				<path d="M204.3,119c0.1,1.6,0.8,2.3,2.2,2.3c1,0,1.8-0.6,2-1.2h2.2c-0.7,2.1-2.2,3-4.2,3c-2.8,0-4.6-2-4.6-4.8
					c0-2.7,1.9-4.8,4.6-4.8c3.1,0,4.6,2.6,4.4,5.4L204.3,119L204.3,119z M208.3,117.4c-0.2-1.3-0.8-1.9-2-1.9c-1.6,0-2,1.2-2.1,1.9
					H208.3z"/>
				<path d="M218.3,121.8L218.3,121.8c-0.6,1-1.6,1.4-2.8,1.4c-2.7,0-4.1-2.3-4.1-4.8c0-2.4,1.3-4.7,4-4.7c1.1,0,2.1,0.5,2.7,1.3
					l0,0l0,0v-4.5h2.5V123h-2.4v-1.2H218.3z M216.2,115.5c-1.6,0-2.2,1.4-2.2,2.9c0,1.4,0.6,2.9,2.2,2.9c1.6,0,2.1-1.4,2.1-2.9
					S217.8,115.5,216.2,115.5z"/>
				<path d="M229.7,112.8H226v-2.3h10.2v2.3h-3.7V123h-2.7v-10.2H229.7z"/>
				<path d="M237.3,110.4h9.3v2.3H240v2.7h6v2.1h-6v3.1h6.7v2.3h-9.5v-12.5H237.3z"/>
				<path d="M247.9,110.4h5.4c3.2,0,5.7,2,5.7,6.2c0,3.6-1.9,6.3-5.7,6.3h-5.4L247.9,110.4L247.9,110.4z M250.7,120.6h2.4
					c1.6,0,3.1-1,3.1-3.7c0-2.5-0.9-4.1-3.6-4.1h-2v7.8H250.7z"/>
				<path d="M266.8,119c0.1,1.6,0.8,2.3,2.2,2.3c1,0,1.8-0.6,2-1.2h2.2c-0.7,2.1-2.2,3-4.2,3c-2.8,0-4.6-2-4.6-4.8
					c0-2.7,1.9-4.8,4.6-4.8c3.1,0,4.6,2.6,4.4,5.4L266.8,119L266.8,119z M270.8,117.4c-0.2-1.3-0.8-1.9-2-1.9c-1.6,0-2,1.2-2.1,1.9
					H270.8z"/>
				<path d="M279.1,122.9h-2.8l-3.1-9h2.6l1.9,6.2l0,0l1.9-6.2h2.5L279.1,122.9z"/>
				<path d="M284.5,119c0.1,1.6,0.8,2.3,2.2,2.3c1,0,1.8-0.6,2-1.2h2.2c-0.7,2.1-2.2,3-4.2,3c-2.8,0-4.6-2-4.6-4.8
					c0-2.7,1.9-4.8,4.6-4.8c3.1,0,4.6,2.6,4.4,5.4L284.5,119L284.5,119z M288.6,117.4c-0.2-1.3-0.8-1.9-2-1.9c-1.6,0-2,1.2-2.1,1.9
					H288.6z"/>
				<path d="M292.2,113.9h2.4v1.3h0.1c0.6-1,1.7-1.5,2.8-1.5c2.6,0,3.3,1.5,3.3,3.7v5.6h-2.5v-5.1c0-1.5-0.4-2.2-1.6-2.2
					c-1.3,0-1.9,0.8-1.9,2.6v4.7h-2.5L292.2,113.9L292.2,113.9z"/>
				<path d="M305.3,113.9h1.8v1.7h-1.8v4.5c0,0.8,0.2,1,1,1c0.3,0,0.5,0,0.8-0.1v1.9c-0.4,0.1-1,0.1-1.5,0.1c-1.5,0-2.8-0.3-2.8-2.1
					v-5.3h-1.5v-1.7h1.5v-2.7h2.5V113.9z"/>
			</g>
		</g>
		<g>
			<g>
				<path class="st2" d="M12.5,10.7H0.9V0.1H37v10.6H25.3v30.9H12.5V10.7z"/>
				<path class="st2" d="M38.9,0.1h35v10.6H51.7v5.2h22.2v9.9H51.7V31h22.2v10.6h-35V0.1z"/>
				<path class="st2" d="M76.1,0.1h21c13.8,0,18.7,10.2,18.7,20.7c0,12.7-6.7,20.8-21.2,20.8H76.1V0.1z M88.9,31h5
					c8,0,9.1-6.5,9.1-10.4c0-2.6-0.8-9.9-10.1-9.9h-4.1L88.9,31L88.9,31z"/>
			</g>
			<g>
				<g>
					<path class="st2" d="M134.2,25.6l-3.9-6.5l-3.8,6.5h-9.4l8.9-13.1L117.5,0h9.4l3.5,6.2L134,0h9.4l-8.6,12.5l8.9,13.1H134.2z"/>
				</g>
			</g>
		</g>
		<g>
			<path d="M34.3,66c-1.2-5.8-5.8-8.8-11.5-8.8c-9.8,0-14,8.1-14,16.7c0,9.4,4.2,17.2,14,17.2c7.1,0,11.4-5.1,11.9-11.9h5.5
				c-1.1,10.3-7.4,16.5-17.8,16.5c-12.7,0-19-9.5-19-21.4s6.8-21.7,19.5-21.7c8.6,0,15.7,4.6,16.9,13.4H34.3z"/>
			<path d="M59.1,64.3c9.5,0,14.5,6.9,14.5,15.6s-5,15.6-14.5,15.6s-14.5-6.9-14.5-15.6S49.6,64.3,59.1,64.3z M59.1,91.2
				c5.1,0,9.3-4,9.3-11.2s-4.2-11.3-9.3-11.3s-9.3,4.1-9.3,11.3S53.9,91.2,59.1,91.2z"/>
			<path d="M92.7,94.8h-5.2L76.4,65h5.5l8.4,24.8h0.1L98.5,65h5.1L92.7,94.8z"/>
			<path d="M133.5,85.3c-1.3,6.6-6,10.1-12.7,10.1c-9.5,0-14-6.6-14.3-15.7c0-9,5.9-15.5,14-15.5c10.6,0,13.8,9.9,13.5,17.1h-22.3
				c-0.2,5.2,2.8,9.8,9.3,9.8c4.1,0,6.9-1.9,7.7-5.8H133.5z M128.8,77c-0.3-4.7-3.7-8.4-8.6-8.4c-5.1,0-8.2,3.8-8.5,8.4H128.8z"/>
			<path d="M139.1,65h4.6v4.7h0.1c2.1-3.7,5.4-5.4,9.7-5.4c7.8,0,10.3,4.5,10.3,10.9v19.6h-4.9V74.6c0-3.7-2.3-6-6.1-6
				c-5.9,0-8.8,4-8.8,9.3v16.8h-4.9L139.1,65L139.1,65z"/>
			<path d="M197.6,94.7c-0.9,0.5-2.1,0.8-3.5,0.8c-2.5,0-4.2-1.4-4.2-4.6c-2.7,3.2-6.3,4.6-10.5,4.6c-5.4,0-9.9-2.4-9.9-8.4
				c0-6.7,5-8.2,10.1-9.2c5.4-1.1,10-0.6,10-4.4c0-4.3-3.6-5-6.6-5c-4.1,0-7.2,1.3-7.4,5.7h-4.9c0.3-7.4,5.9-10,12.6-10
				c5.4,0,11.2,1.2,11.2,8.2v15.3c0,2.3,0,3.3,1.6,3.3c0.5,0,1-0.1,1.5-0.3L197.6,94.7L197.6,94.7z M189.6,79.4
				c-3.8,2.8-14.9,0.1-14.9,7.4c0,3.2,2.8,4.4,5.8,4.4c6.5,0,9.1-4,9.1-6.7L189.6,79.4L189.6,79.4z"/>
			<path d="M202.1,65h4.6v4.7h0.1c2.1-3.7,5.4-5.4,9.7-5.4c7.8,0,10.3,4.5,10.3,10.9v19.6h-4.9V74.6c0-3.7-2.3-6-6.1-6
				c-5.9,0-8.8,4-8.8,9.3v16.8h-4.9L202.1,65L202.1,65z"/>
			<path d="M241,65h5.9v4.3H241v18.5c0,2.3,0.6,2.7,3.7,2.7h2.2v4.3h-3.7c-5.1,0-7.1-1-7.1-6.5v-19H231V65h5.1v-8.9h4.9V65z"/>
			<path d="M302,79.9c0,10.4-5.9,15.9-16.2,15.9c-10.6,0-16.9-4.9-16.9-15.9V53.6h5.5v26.3c0,7.3,4.1,11.2,11.4,11.2
				c7,0,10.7-3.9,10.7-11.2V53.6h5.5V79.9z"/>
			<path d="M310,65h4.6v4.7h0.1c2.1-3.7,5.4-5.4,9.7-5.4c7.8,0,10.3,4.5,10.3,10.9v19.6h-4.9V74.6c0-3.7-2.3-6-6.1-6
				c-5.9,0-8.8,4-8.8,9.3v16.8H310V65z"/>
			<path d="M347.2,59.6h-4.9v-6h4.9V59.6z M342.3,65h4.9v29.8h-4.9V65z"/>
			<path d="M368.3,94.8H363L352,65h5.5l8.4,24.8h0.1l8-24.8h5.1L368.3,94.8z"/>
			<path d="M409.1,85.3c-1.3,6.6-6,10.1-12.7,10.1c-9.5,0-14-6.6-14.3-15.7c0-9,5.9-15.5,14-15.5c10.6,0,13.8,9.9,13.5,17.1h-22.3
				c-0.2,5.2,2.8,9.8,9.3,9.8c4.1,0,6.9-1.9,7.7-5.8H409.1z M404.4,77c-0.3-4.7-3.7-8.4-8.6-8.4c-5.1,0-8.2,3.8-8.5,8.4H404.4z"/>
			<path d="M414.5,65h4.6v6.3h0.1c2.4-4.8,5.6-7.2,11-7v5.2c-7.9,0-10.8,4.4-10.8,12v13.3h-4.9L414.5,65L414.5,65z"/>
			<path d="M436.8,85.4c0.2,4.4,4,5.8,8,5.8c3.1,0,7.2-0.7,7.2-4.4c0-7.7-19.5-2.5-19.5-14c0-6,5.9-8.5,11.1-8.5
				c6.7,0,11.8,2.1,12.2,9.3H451c-0.3-3.8-3.7-5-6.9-5c-2.9,0-6.3,0.8-6.3,3.8c0,3.5,5.2,4.2,9.7,5.2c4.9,1.1,9.7,2.8,9.7,8.5
				c0,7.1-6.6,9.4-12.7,9.4c-6.7,0-12.3-2.7-12.6-10.1C431.9,85.4,436.8,85.4,436.8,85.4z"/>
			<path d="M467.9,59.6H463v-6h4.9V59.6z M463,65h4.9v29.8H463V65z"/>
			<path d="M482.3,65h5.9v4.3h-5.9v18.5c0,2.3,0.6,2.7,3.7,2.7h2.2v4.3h-3.7c-5.1,0-7.1-1-7.1-6.5v-19h-5.1V65h5.1v-8.9h4.9V65z"/>
			<path d="M505.3,98.8c-2.3,5.8-4.3,8-8.6,8c-1.2,0-2.3-0.1-3.4-0.5v-4.5c0.9,0.3,1.9,0.7,2.9,0.7c2,0,3.1-0.9,4-2.7l2-5.1
				L490.4,65h5.5l8.7,24.4h0.1l8.4-24.4h5.2L505.3,98.8z"/>
		</g>
	</g>
	<g class="st0">
		<path class="st1" d="M28.5,199.9c-7.1,6.6-8.9,15.5-8.8,22.3h-9.2c-0.1,0,0.3-9.3,5.9-17.4c2.8-4.1,3.5-4.5,3.5-4.6H6v-7.1h22.4
			V199.9z"/>
		<path class="st1" d="M33.9,214h8.7v8.3h-8.7V214z"/>
		<path class="st1" d="M56.9,205.5H50v-6c4.2,0.1,8.4-1.5,8.6-6.3h6.8v29.1h-8.7V205.5z"/>
		<path class="st1" d="M87,192.8c5.3,0,12.4,3.7,12.4,14.9c0,11.2-7.1,14.9-12.4,14.9s-12.4-3.7-12.4-14.9
			C74.7,196.5,81.8,192.8,87,192.8z M87,216.2c4.2,0,4.5-5.4,4.5-8.5c0-3-0.2-8.5-4.4-8.5c-4.3,0-4.5,5.3-4.5,8.5
			C82.6,210.8,82.8,216.2,87,216.2z"/>
		<path class="st1" d="M103.6,214h8.7v8.3h-8.7V214z"/>
		<path class="st1" d="M126.6,205.5h-6.8v-6c4.2,0.1,8.4-1.5,8.6-6.3h6.8v29.1h-8.7V205.5z"/>
		<path class="st1" d="M167.9,199.9c-7.1,6.6-8.9,15.5-8.8,22.3h-9.2c-0.1,0,0.3-9.3,5.9-17.4c2.8-4.1,3.5-4.5,3.5-4.6h-13.9v-7.1
			h22.4V199.9z"/>
	</g>
</g>
</svg>
